<svg aria-hidden="true" style="position:absolute;width:0;height:0;overflow:hidden" xmlns="http://www.w3.org/2000/svg"><defs><symbol id="icon-envelope-tab" viewBox="0 0 45 32"><path fill="#757575" style="fill:var(--color1, #757575)" d="M40.602 0h-36.4C1.885 0 0 1.792 0 4v24c0 2.208 1.885 4 4.202 4h36.4c2.31 0 4.198-1.792 4.198-4V4c0-2.208-1.885-4-4.202-4zm0 2.666c.189 0 .368.038.534.106L22.4 18.238 3.664 2.772c.158-.066.342-.104.534-.106h36.401zm0 26.668H4.17c-.744 0-1.35-.593-1.369-1.333V5.586l18.682 15.421a1.435 1.435 0 0 0 1.839-.002l-.002.002L42.002 5.586v22.413c0 .736-.627 1.334-1.402 1.334z"/></symbol><symbol id="icon-smartphone-tab" viewBox="0 0 23 32"><path fill="#757575" style="fill:var(--color1, #757575)" d="M19.429 0h-16C1.539 0 0 1.346 0 3.001v25.998C0 30.656 1.538 32 3.429 32h16c1.89 0 3.429-1.346 3.429-3.001V3.001C22.858 1.346 21.32 0 19.429 0zm-16 2h16c.631 0 1.143.448 1.143 1.001V24H2.286V2.999c0-.549.512-.999 1.143-.999zm16 28h-16c-.631 0-1.143-.448-1.143-1.001V26h18.286v3.001c0 .549-.512.999-1.143.999z"/></symbol></defs></svg>